<?xml version="1.0" standalone="no"?>
<!DOCTYPE svg PUBLIC "-//W3C//DTD SVG 20010904//EN"
 "http://www.w3.org/TR/2001/REC-SVG-20010904/DTD/svg10.dtd">
<svg version="1.0" xmlns="http://www.w3.org/2000/svg"
 width="700.000000pt" height="700.000000pt" viewBox="0 0 700.000000 700.000000"
 preserveAspectRatio="xMidYMid meet">
<metadata>
Created by potrace 1.11, written by Peter Selinger 2001-2013
</metadata>
<g transform="translate(0.000000,700.000000) scale(0.100000,-0.100000)"
fill="#000000" stroke="none">
<path d="M1143 3500 l0 -2938 31 37 c17 20 45 55 61 76 17 21 42 52 56 69 14
17 127 157 250 311 123 154 229 287 236 295 24 29 198 246 228 284 42 54 253
317 273 341 9 11 42 52 72 90 30 39 59 75 65 81 5 6 24 28 40 49 17 21 51 65
76 97 l47 58 0 322 c0 178 1 335 1 349 l1 26 280 0 c154 0 282 2 283 4 46 59
123 155 127 159 3 3 48 59 100 125 52 66 100 125 106 130 6 6 44 53 84 104 41
52 81 104 91 115 10 12 59 73 109 136 105 131 85 106 349 435 110 138 201 252
201 255 0 3 -389 4 -865 3 l-865 -3 3 212 2 212 1034 0 1035 1 188 235 c104
129 194 242 201 250 38 48 155 193 317 395 102 127 190 237 197 245 7 8 64 80
128 160 64 80 127 159 140 175 14 17 25 33 25 37 0 3 -1059 6 -2353 6 l-2354
0 0 -2938z"/>
</g>
</svg>
